<?xml version="1.0" encoding="utf-8"?>
<!-- Generator: Adobe Illustrator 25.0.1, SVG Export Plug-In . SVG Version: 6.00 Build 0)  -->
<svg version="1.1" id="Layer_1" xmlns="http://www.w3.org/2000/svg" xmlns:xlink="http://www.w3.org/1999/xlink" x="0px" y="0px"
	 viewBox="0 0 64.3 39.7" style="enable-background:new 0 0 64.3 39.7;" xml:space="preserve">
<style type="text/css">
	.st0{fill:#FFFFFF;}
</style>
<path class="st0" d="M10.4,33c0,2.9-2.3,5.2-5.2,5.2S0,35.9,0,33V6.6c0-2.9,2.3-5.2,5.2-5.2s5.2,2.3,5.2,5.2V33z M44,6.6
	c0-2.9-2.3-5.2-5.2-5.2c-2.9,0-5.2,2.3-5.2,5.2V33c0,2.9,2.3,5.2,5.2,5.2c2.9,0,5.2-2.3,5.2-5.2V6.6z M27.2,22.2
	c0-2.9-2.3-5.2-5.2-5.2s-5.2,2.3-5.2,5.2V33c0,2.9,2.3,5.2,5.2,5.2s5.2-2.3,5.2-5.2V22.2z M22,1.4c-3,0-5.4,2.4-5.4,5.4
	s2.4,5.4,5.4,5.4s5.4-2.4,5.4-5.4S25,1.4,22,1.4z M54.3,1.4c-3,0-5.4,2.4-5.4,5.4s2.4,5.4,5.4,5.4s5.4-2.4,5.4-5.4
	S57.3,1.4,54.3,1.4z M54.3,17c-3,0-5.4,2.4-5.4,5.4s2.4,5.4,5.4,5.4s5.4-2.4,5.4-5.4S57.3,17,54.3,17z"/>
</svg>
